<svg xmlns="http://www.w3.org/2000/svg" xmlns:xlink="http://www.w3.org/1999/xlink" id="Layer_1" width="100%" x="0" y="0" enable-background="new 0 0 500 500" version="1.1" viewBox="0 0 500 500" xml:space="preserve"><path fill="#0D6EFD" stroke="none" d="M279.000000,501.000000	C186.000015,501.000000 93.500046,501.000000 1.000050,501.000000	C1.000033,334.333405 1.000033,167.666794 1.000017,1.000139	C167.666565,1.000093 334.333130,1.000093 500.999756,1.000046	C500.999847,167.666519 500.999847,334.333038 500.999939,500.999786	C427.166656,501.000000 353.333344,501.000000 279.000000,501.000000 M227.897842,321.500061	C227.897842,292.748932 227.897842,263.997803 227.897842,235.174286	C242.149811,235.174286 256.348816,235.174286 270.922455,235.174286	C270.922455,237.229034 270.918579,238.871429 270.923065,240.513779	C270.970520,257.840820 270.918488,275.168945 271.105377,292.494476	C271.218384,302.975281 271.101807,313.513489 272.165314,323.915833	C273.639648,338.336487 284.392883,348.189636 299.275879,349.776642	C301.831879,343.658997 304.425079,337.452301 307.203857,330.801514	C297.797119,328.784790 295.632385,322.066376 295.150360,314.218475	C295.068665,312.888763 295.017609,311.555115 295.013580,310.223053	C294.942383,286.564911 294.875183,262.906708 294.830414,239.248505	C294.827698,237.823334 295.020172,236.397797 295.157379,234.473480	C301.837769,234.473480 308.079071,234.473480 314.183807,234.473480	C314.183807,227.725266 314.183807,221.523300 314.183807,215.333847	C274.696259,215.333847 235.719376,215.185150 196.745956,215.484360	C190.458359,215.532623 184.186081,217.574722 177.414291,218.783020	C179.371552,225.753128 180.974640,231.461929 182.501617,236.899719	C189.657135,236.040543 196.427917,235.227554 204.105789,234.305649	C204.105789,272.683380 204.105789,309.753113 204.105789,346.742493	C212.470734,346.742493 220.052719,346.742493 227.898819,346.742493	C227.898819,338.440002 227.898819,330.470032 227.897842,321.500061 M143.483368,216.103638	C134.035767,216.103638 124.588181,216.103638 114.374588,216.103638	C114.374588,203.008102 114.374588,190.467224 114.374588,178.024963	C106.329010,178.024963 99.063805,178.024963 91.571632,178.024963	C91.571632,190.771667 91.571632,203.199554 91.571632,216.174301	C77.768341,216.174301 64.190247,216.174301 50.508053,216.174301	C50.508053,223.118454 50.508053,229.507584 50.508053,236.533569	C64.411606,236.533569 77.964676,236.533569 92.304924,236.533569	C92.304924,273.715363 92.304924,310.259460 92.304924,346.753967	C100.368797,346.753967 107.624893,346.753967 115.160896,346.753967	C115.160896,309.861542 115.160896,273.288086 115.160896,236.224930	C128.926132,236.224930 142.352600,236.224930 155.723633,236.224930	C155.723633,229.309372 155.723633,222.892303 155.723633,216.103638	C151.743103,216.103638 148.108841,216.103638 143.483368,216.103638 M392.414551,310.498962	C392.414551,316.423370 392.414551,322.347778 392.414551,328.716339	C379.014618,328.716339 366.243530,328.716339 353.463226,328.716339	C353.463226,335.075409 353.463226,340.960419 353.463226,346.655151	C386.727966,346.655151 419.598145,346.655151 452.286377,346.655151	C452.286377,340.501343 452.286377,334.778717 452.286377,328.567413	C440.273163,328.567413 428.694824,328.567413 416.183838,328.567413	C416.183838,290.551880 416.183838,253.028992 416.183838,215.462509	C394.853882,215.462509 374.471161,215.462509 354.257172,215.462509	C354.257172,221.714615 354.257172,227.597412 354.257172,233.836655	C366.993561,233.836655 379.260956,233.836655 392.399017,233.836655	C392.399017,259.305023 392.399017,284.402100 392.414551,310.498962 M412.955109,175.248611	C413.407043,172.978271 414.200623,170.715591 414.251709,168.436279	C414.471619,158.619644 406.922394,151.622955 396.881134,152.116119	C387.032471,152.599808 380.425293,160.628967 381.768707,170.481003	C382.724365,177.489563 387.333435,182.612976 393.935852,184.005905	C401.977936,185.702591 408.062531,183.083679 412.955109,175.248611 z" opacity="1"/><path fill="#FCFDFF" stroke="none" d="M227.898331,322.000061	C227.898819,330.470032 227.898819,338.440002 227.898819,346.742493	C220.052719,346.742493 212.470734,346.742493 204.105789,346.742493	C204.105789,309.753113 204.105789,272.683380 204.105789,234.305649	C196.427917,235.227554 189.657135,236.040543 182.501617,236.899719	C180.974640,231.461929 179.371552,225.753128 177.414291,218.783020	C184.186081,217.574722 190.458359,215.532623 196.745956,215.484360	C235.719376,215.185150 274.696259,215.333847 314.183807,215.333847	C314.183807,221.523300 314.183807,227.725266 314.183807,234.473480	C308.079071,234.473480 301.837769,234.473480 295.157379,234.473480	C295.020172,236.397797 294.827698,237.823334 294.830414,239.248505	C294.875183,262.906708 294.942383,286.564911 295.013580,310.223053	C295.017609,311.555115 295.068665,312.888763 295.150360,314.218475	C295.632385,322.066376 297.797119,328.784790 307.203857,330.801514	C304.425079,337.452301 301.831879,343.658997 299.275879,349.776642	C284.392883,348.189636 273.639648,338.336487 272.165314,323.915833	C271.101807,313.513489 271.218384,302.975281 271.105377,292.494476	C270.918488,275.168945 270.970520,257.840820 270.923065,240.513779	C270.918579,238.871429 270.922455,237.229034 270.922455,235.174286	C256.348816,235.174286 242.149811,235.174286 227.897842,235.174286	C227.897842,263.997803 227.897842,292.748932 227.898331,322.000061 z" opacity="1"/><path fill="#FDFDFF" stroke="none" d="M143.978973,216.103638	C148.108841,216.103638 151.743103,216.103638 155.723633,216.103638	C155.723633,222.892303 155.723633,229.309372 155.723633,236.224930	C142.352600,236.224930 128.926132,236.224930 115.160896,236.224930	C115.160896,273.288086 115.160896,309.861542 115.160896,346.753967	C107.624893,346.753967 100.368797,346.753967 92.304924,346.753967	C92.304924,310.259460 92.304924,273.715363 92.304924,236.533569	C77.964676,236.533569 64.411606,236.533569 50.508053,236.533569	C50.508053,229.507584 50.508053,223.118454 50.508053,216.174301	C64.190247,216.174301 77.768341,216.174301 91.571632,216.174301	C91.571632,203.199554 91.571632,190.771667 91.571632,178.024963	C99.063805,178.024963 106.329010,178.024963 114.374588,178.024963	C114.374588,190.467224 114.374588,203.008102 114.374588,216.103638	C124.588181,216.103638 134.035767,216.103638 143.978973,216.103638 z" opacity="1"/><path fill="#FCFDFF" stroke="none" d="M392.406799,309.999084	C392.399017,284.402100 392.399017,259.305023 392.399017,233.836655	C379.260956,233.836655 366.993561,233.836655 354.257172,233.836655	C354.257172,227.597412 354.257172,221.714615 354.257172,215.462509	C374.471161,215.462509 394.853882,215.462509 416.183838,215.462509	C416.183838,253.028992 416.183838,290.551880 416.183838,328.567413	C428.694824,328.567413 440.273163,328.567413 452.286377,328.567413	C452.286377,334.778717 452.286377,340.501343 452.286377,346.655151	C419.598145,346.655151 386.727966,346.655151 353.463226,346.655151	C353.463226,340.960419 353.463226,335.075409 353.463226,328.716339	C366.243530,328.716339 379.014618,328.716339 392.414551,328.716339	C392.414551,322.347778 392.414551,316.423370 392.406799,309.999084 z" opacity="1"/><path fill="#FCFDFF" stroke="none" d="M412.808472,175.597321	C408.062531,183.083679 401.977936,185.702591 393.935852,184.005905	C387.333435,182.612976 382.724365,177.489563 381.768707,170.481003	C380.425293,160.628967 387.032471,152.599808 396.881134,152.116119	C406.922394,151.622955 414.471619,158.619644 414.251709,168.436279	C414.200623,170.715591 413.407043,172.978271 412.808472,175.597321 z" opacity="1"/></svg>